# xmcd
#
# Track frame offsets:
#	150
#	38682
#	54139
#	65945
#	78840
#	89995
#	118627
#	132157
#	146207
#	162432
#
# Disc length: 2360 seconds
#
# Revision: 1
# Processed by: cddbd v1.5.2PL0 Copyright (c) Steve Scherf et al.
# Submitted via: audiograbber 1.83.01
#
DISCID=8e09360a
DTITLE=Various Artist - the Blues as it was
DYEAR=2000
DGENRE=Blues
TTITLE0=son house - Preachin' The Blues
TTITLE1=muddy waters - Standing Around Cryin'
TTITLE2=ray charles - C. C. Rider
TTITLE3=magic sam - Barbecue Blues
TTITLE4=howlin wolf - Wang Dang Doodle
TTITLE5=lightnin Hopkins - Wonder Why
TTITLE6=howlin wolf - Highway 49
TTITLE7=nina simone - Gin House Blues
TTITLE8=memphis slim - Born With The Blues
TTITLE9=otis spann - My Home Is In The Delta
EXTD=
EXTT0=
EXTT1=
EXTT2=
EXTT3=
EXTT4=
EXTT5=
EXTT6=
EXTT7=
EXTT8=
EXTT9=
PLAYORDER=
